<?xml version="1.0" standalone="no"?>
<!DOCTYPE svg PUBLIC "-//W3C//DTD SVG 20010904//EN"
 "http://www.w3.org/TR/2001/REC-SVG-20010904/DTD/svg10.dtd">
<svg version="1.0" xmlns="http://www.w3.org/2000/svg"
 width="313.000000pt" height="313.000000pt" viewBox="0 0 313.000000 313.000000"
 preserveAspectRatio="xMidYMid meet">
<metadata>
Created by potrace 1.14, written by Peter Selinger 2001-2017
</metadata>
<g transform="translate(0.000000,313.000000) scale(0.100000,-0.100000)"
fill="#000000" stroke="none">
<path d="M1853 3111 c-40 -25 -63 -68 -63 -119 0 -29 8 -48 33 -77 28 -32 40
-38 84 -42 42 -5 57 -1 82 17 57 40 77 111 47 168 -15 28 -56 71 -56 57 0 -4
-6 -3 -12 2 -24 17 -82 14 -115 -6z"/>
<path d="M1537 2808 c-10 -5 -17 -6 -17 -3 0 3 -17 -3 -37 -14 -139 -71 -152
-257 -25 -346 38 -26 52 -30 111 -30 58 0 73 4 109 29 61 42 85 87 88 161 3
54 -1 69 -25 107 -15 24 -41 52 -57 63 -39 25 -126 45 -147 33z"/>
<path d="M526 2628 c1 -29 2 -56 3 -59 0 -3 24 -5 51 -5 29 1 50 -3 51 -9 1
-16 1 -78 0 -100 -1 -14 -15 -26 -44 -38 -50 -21 -115 -78 -144 -128 -43 -75
-46 -102 -45 -384 0 -314 -6 -351 -69 -420 -22 -24 -56 -51 -77 -61 -40 -19
-39 -19 -104 -28 -49 -7 -88 -43 -88 -82 0 -37 42 -74 83 -74 86 0 181 -61
225 -144 l26 -51 2 -365 c1 -246 6 -380 14 -410 24 -92 87 -165 180 -209 50
-23 67 -26 176 -26 137 0 164 9 189 62 26 55 6 116 -48 145 -10 5 -50 11 -88
13 -113 6 -200 61 -243 154 -19 44 -21 65 -22 386 -2 283 -5 347 -18 384 -16
43 -58 108 -80 123 -8 5 -8 12 -1 21 44 59 77 118 86 152 7 23 12 149 13 295
2 235 3 258 23 300 42 91 132 152 229 154 52 1 54 2 55 29 0 35 0 369 0 402
l-1 25 -168 0 -168 0 2 -52z"/>
<path d="M2259 2653 c-3 -142 -3 -423 1 -424 3 0 29 -2 58 -4 98 -7 184 -66
225 -155 20 -42 21 -65 23 -310 2 -257 3 -267 27 -320 13 -30 36 -69 50 -86
26 -31 35 -54 20 -54 -13 0 -70 -93 -83 -134 -9 -27 -13 -142 -14 -375 -2
-376 -3 -380 -74 -455 -49 -51 -109 -77 -189 -81 -36 -2 -78 -9 -94 -15 -54
-23 -76 -124 -35 -166 36 -35 66 -42 184 -40 95 2 126 6 164 23 68 31 113 68
146 121 53 84 54 97 57 496 2 417 1 412 76 487 41 41 91 68 139 75 81 13 91
17 106 40 21 31 12 82 -18 103 -12 8 -41 17 -65 18 -85 7 -174 67 -216 147
-20 39 -21 56 -23 322 -1 155 -4 298 -8 318 -19 99 -96 198 -183 233 -23 10
-43 23 -44 28 -4 63 -2 108 5 113 5 3 30 6 55 6 l46 1 0 58 1 57 -168 0 -168
0 -1 -27z"/>
<path d="M1349 2132 c-13 -9 -27 -21 -31 -26 -4 -6 -8 -87 -8 -179 0 -165 0
-168 25 -192 13 -14 35 -25 49 -25 73 0 83 27 82 227 -1 148 -3 164 -21 182
-27 27 -68 33 -96 13z"/>
<path d="M1669 2069 c-35 -13 -49 -47 -49 -119 0 -100 37 -142 105 -120 42 14
53 41 50 128 -1 57 -6 77 -21 92 -25 24 -53 30 -85 19z"/>
<path d="M1054 1859 c-47 -13 -70 -72 -52 -136 15 -55 77 -75 122 -39 28 22
38 72 23 126 -9 36 -54 59 -93 49z"/>
<path d="M1959 1821 l-24 -19 -1 -289 c-1 -193 -5 -297 -13 -310 -6 -12 -26
-27 -45 -33 -29 -9 -39 -8 -61 6 -14 9 -28 28 -32 42 -3 14 -7 120 -8 236 0
116 -4 218 -9 227 -22 48 -109 47 -133 -1 -9 -18 -13 -106 -13 -325 0 -277 -1
-302 -18 -325 -25 -34 -79 -39 -110 -10 -27 25 -24 -6 -26 292 -1 221 -3 248
-19 266 -37 41 -104 33 -126 -15 -6 -13 -11 -75 -11 -138 0 -126 -9 -158 -50
-175 -22 -9 -34 -8 -58 4 -17 9 -34 22 -39 28 -4 7 -8 59 -9 116 -2 93 -4 106
-25 128 -28 30 -81 32 -109 4 -11 -11 -20 -23 -21 -27 0 -5 -2 -19 -3 -32 -4
-32 -51 -69 -83 -65 -14 1 -35 12 -47 23 -18 18 -21 35 -23 127 -2 117 -14
149 -60 160 -31 8 -73 -12 -88 -42 -6 -13 -10 -177 -10 -451 l1 -430 32 -66
c58 -117 123 -161 432 -292 74 -32 153 -66 175 -76 134 -60 174 -75 211 -78
38 -2 112 25 299 109 22 10 94 42 160 70 145 63 229 104 250 122 51 43 95 88
95 97 0 6 4 11 9 11 5 0 11 8 14 17 3 10 13 38 22 63 15 39 17 99 17 460 0
261 -4 425 -11 442 -20 52 -83 64 -122 22 -22 -24 -24 -32 -24 -157 -1 -73 -5
-143 -9 -155 -17 -52 -109 -58 -134 -9 -7 14 -13 99 -14 223 -3 182 -5 204
-22 223 -24 27 -76 28 -107 2z"/>
</g>
</svg>
