<?xml version="1.0" encoding="UTF-8"?>
<svg xmlns="http://www.w3.org/2000/svg" xmlns:xlink="http://www.w3.org/1999/xlink" width="50px" height="53px" viewBox="0 0 50 53" version="1.1">
<g id="surface1">
<path style=" stroke:none;fill-rule:evenodd;fill:rgb(88.235294%,51.372549%,46.666667%);fill-opacity:1;" d="M 30.609375 0.0390625 C 29.9375 0.167969 29.347656 0.617188 29.042969 1.234375 L 28.910156 1.511719 L 28.792969 2.175781 L 28.816406 2.390625 C 28.847656 2.691406 28.9375 2.992188 29.074219 3.269531 L 29.195312 3.507812 L 29.46875 3.78125 L 29.742188 4.058594 L 29.972656 4.179688 C 30.101562 4.246094 30.3125 4.332031 30.441406 4.363281 L 30.679688 4.425781 L 31.3125 4.425781 L 31.546875 4.363281 C 31.679688 4.332031 31.890625 4.246094 32.015625 4.179688 L 32.246094 4.058594 L 32.796875 3.507812 L 32.914062 3.269531 C 33.050781 2.992188 33.136719 2.695312 33.171875 2.390625 L 33.195312 2.175781 L 33.140625 1.851562 L 33.082031 1.53125 L 32.945312 1.238281 L 32.808594 0.949219 L 32.566406 0.695312 C 32.296875 0.414062 32.070312 0.265625 31.699219 0.128906 L 31.449219 0.0390625 L 31.117188 0.0195312 C 30.933594 0.0117188 30.703125 0.0195312 30.609375 0.0390625 M 24.453125 5.464844 C 24.082031 5.550781 23.636719 5.738281 23.320312 5.949219 L 23.03125 6.144531 L 22.738281 6.457031 L 22.441406 6.769531 L 22.265625 7.078125 L 22.085938 7.382812 L 21.964844 7.757812 L 21.84375 8.128906 L 21.828125 8.675781 L 21.8125 9.226562 L 21.976562 9.929688 L 22.144531 10.28125 L 22.316406 10.636719 L 22.542969 10.925781 C 22.671875 11.082031 22.902344 11.320312 23.058594 11.445312 L 23.34375 11.679688 L 23.6875 11.851562 C 23.878906 11.945312 24.140625 12.050781 24.265625 12.085938 L 24.5 12.148438 L 25.019531 12.167969 L 25.539062 12.191406 L 25.808594 12.132812 C 27.140625 11.84375 28.164062 10.796875 28.433594 9.441406 L 28.5 9.109375 L 28.476562 8.636719 L 28.453125 8.167969 L 28.390625 7.933594 C 28.058594 6.691406 27.050781 5.722656 25.820312 5.46875 L 25.523438 5.40625 L 25.109375 5.410156 L 24.691406 5.414062 L 24.453125 5.464844 M 13.917969 33.042969 C 13.820312 33.074219 13.65625 33.164062 13.550781 33.246094 L 13.359375 33.398438 L 13.234375 33.605469 C 13.167969 33.722656 13.09375 33.90625 13.070312 34.019531 L 13.027344 34.222656 L 13.039062 37.097656 L 13.050781 39.976562 L 13.191406 40.351562 L 13.375 40.554688 C 13.582031 40.785156 13.800781 40.910156 14.105469 40.976562 L 14.3125 41.023438 L 14.527344 40.976562 C 14.972656 40.886719 15.308594 40.625 15.492188 40.230469 L 15.59375 40.015625 L 15.59375 33.941406 L 15.480469 33.714844 L 15.367188 33.484375 L 15.179688 33.3125 L 14.992188 33.144531 L 14.78125 33.0625 L 14.570312 32.984375 L 14.328125 32.984375 C 14.199219 32.988281 14.011719 33.011719 13.917969 33.042969 M 34.734375 33.085938 C 34.382812 33.214844 34.101562 33.480469 33.929688 33.84375 L 33.867188 33.980469 L 33.84375 39.886719 L 33.902344 40.089844 C 33.933594 40.199219 34.011719 40.371094 34.078125 40.472656 L 34.195312 40.652344 L 34.398438 40.792969 L 34.597656 40.933594 L 34.832031 40.992188 L 35.0625 41.054688 L 35.253906 41.03125 C 35.671875 40.976562 36.054688 40.714844 36.257812 40.339844 L 36.371094 40.132812 L 36.382812 37.082031 L 36.394531 34.035156 L 36.292969 33.804688 L 36.1875 33.570312 L 36 33.390625 C 35.894531 33.292969 35.730469 33.175781 35.628906 33.128906 L 35.445312 33.046875 L 35.175781 33.035156 L 34.90625 33.019531 L 34.734375 33.085938 M 19.3125 35.257812 C 18.917969 35.320312 18.511719 35.644531 18.335938 36.03125 L 18.253906 36.214844 L 18.253906 42.285156 L 18.457031 42.730469 L 18.621094 42.890625 C 18.707031 42.976562 18.878906 43.097656 19 43.15625 L 19.21875 43.265625 L 19.527344 43.265625 L 19.835938 43.261719 L 20.050781 43.160156 L 20.269531 43.058594 L 20.433594 42.894531 L 20.59375 42.730469 L 20.796875 42.285156 L 20.796875 36.214844 L 20.714844 36.03125 C 20.667969 35.929688 20.550781 35.757812 20.453125 35.652344 L 20.277344 35.460938 L 20.054688 35.363281 C 19.800781 35.25 19.5625 35.214844 19.3125 35.257812 M 29.566406 35.332031 C 29.359375 35.394531 29.152344 35.53125 28.984375 35.714844 L 28.808594 35.90625 L 28.726562 36.132812 L 28.640625 36.359375 L 28.652344 39.363281 L 28.664062 42.363281 L 28.75 42.546875 C 28.800781 42.644531 28.902344 42.800781 28.972656 42.886719 L 29.109375 43.046875 L 29.625 43.304688 L 29.933594 43.304688 L 30.242188 43.300781 L 30.460938 43.195312 L 30.679688 43.085938 L 30.875 42.871094 L 31.070312 42.652344 L 31.226562 42.128906 L 31.21875 39.210938 L 31.207031 36.292969 L 31.078125 36.03125 L 30.953125 35.769531 L 30.777344 35.609375 L 30.601562 35.453125 L 30.390625 35.375 L 30.183594 35.292969 L 29.921875 35.296875 C 29.78125 35.300781 29.621094 35.3125 29.566406 35.332031 M 24.402344 37.863281 C 24.019531 37.96875 23.734375 38.214844 23.558594 38.585938 L 23.457031 38.800781 L 23.457031 44.871094 L 23.542969 45.054688 C 23.589844 45.15625 23.707031 45.328125 23.804688 45.433594 L 23.980469 45.625 L 24.214844 45.734375 L 24.453125 45.839844 L 24.785156 45.824219 L 25.117188 45.804688 L 25.277344 45.722656 C 25.628906 45.535156 25.855469 45.261719 25.960938 44.882812 L 26.023438 44.667969 L 26.011719 41.734375 L 26.003906 38.800781 L 25.785156 38.355469 L 25.578125 38.160156 L 25.367188 37.964844 L 25.183594 37.902344 C 25.085938 37.867188 24.914062 37.832031 24.808594 37.820312 L 24.613281 37.800781 L 24.402344 37.863281 "/>
<path style=" stroke:none;fill-rule:evenodd;fill:rgb(10.980392%,17.254902%,20.392157%);fill-opacity:1;" d="M 7.710938 8.597656 L 7.710938 9.597656 L 9.523438 9.597656 L 9.523438 11.742188 L 9.222656 11.847656 C 7.484375 12.472656 6.234375 13.871094 5.753906 15.722656 L 5.652344 16.121094 L 5.625 20.839844 L 5.601562 25.558594 L 5.539062 25.824219 C 5.199219 27.234375 4.367188 28.304688 3.144531 28.910156 L 2.753906 29.105469 L 2.371094 29.203125 L 1.984375 29.304688 L 1 29.375 L 0.539062 29.585938 L 0.363281 29.777344 C 0.265625 29.882812 0.148438 30.050781 0.101562 30.152344 L 0.0195312 30.339844 L 0.0195312 31.042969 L 0.128906 31.265625 L 0.234375 31.492188 L 0.429688 31.667969 L 0.621094 31.84375 L 0.820312 31.917969 L 1.023438 31.992188 L 1.425781 32.019531 C 3.460938 32.15625 5.039062 33.488281 5.519531 35.476562 L 5.605469 35.824219 L 5.652344 47.886719 L 5.71875 48.15625 C 6.246094 50.328125 7.75 51.84375 9.886719 52.359375 L 10.15625 52.421875 L 11.75 52.441406 L 13.34375 52.457031 L 13.613281 52.410156 L 13.882812 52.367188 L 14.144531 52.234375 L 14.402344 52.101562 L 14.636719 51.855469 C 14.894531 51.582031 14.996094 51.40625 15.09375 51.0625 L 15.160156 50.832031 L 15.140625 50.445312 L 15.125 50.0625 L 14.828125 49.453125 L 14.613281 49.238281 C 14.359375 48.988281 14.097656 48.835938 13.78125 48.75 L 13.554688 48.691406 L 12.929688 48.691406 C 11.714844 48.691406 10.988281 48.488281 10.144531 47.917969 L 9.8125 47.695312 L 9.496094 47.371094 C 8.789062 46.648438 8.367188 45.746094 8.25 44.714844 L 8.210938 44.363281 L 8.210938 34.160156 L 8.136719 33.777344 C 7.941406 32.742188 7.480469 31.84375 6.75 31.058594 L 6.40625 30.6875 L 6.722656 30.351562 C 7.402344 29.632812 7.839844 28.808594 8.121094 27.734375 L 8.1875 27.480469 L 8.234375 19.175781 L 8.304688 18.882812 C 8.742188 16.992188 10.128906 15.652344 11.9375 15.375 L 12.316406 15.316406 L 13.378906 15.316406 L 13.378906 7.597656 L 7.710938 7.597656 L 7.710938 8.597656 M 36.621094 11.457031 L 36.621094 15.316406 L 37.683594 15.316406 L 38.0625 15.375 C 40.019531 15.675781 41.523438 17.273438 41.75 19.292969 L 41.789062 19.644531 L 41.789062 27.230469 L 41.867188 27.613281 C 42.085938 28.710938 42.65625 29.777344 43.40625 30.488281 L 43.605469 30.679688 L 43.261719 31.042969 C 42.53125 31.820312 42.058594 32.738281 41.863281 33.777344 L 41.789062 34.160156 L 41.789062 44.363281 L 41.75 44.714844 C 41.535156 46.605469 40.269531 48.078125 38.4375 48.5625 L 38.070312 48.660156 L 37.164062 48.6875 L 36.257812 48.71875 L 36.035156 48.804688 C 35.570312 48.988281 35.226562 49.324219 34.992188 49.828125 L 34.871094 50.082031 L 34.839844 50.839844 L 34.921875 51.109375 C 35.023438 51.441406 35.128906 51.621094 35.390625 51.890625 L 35.597656 52.101562 L 35.859375 52.234375 L 36.117188 52.367188 L 36.386719 52.410156 L 36.65625 52.457031 L 39.84375 52.425781 L 40.167969 52.34375 C 42.238281 51.828125 43.707031 50.363281 44.246094 48.28125 L 44.351562 47.886719 L 44.371094 41.855469 L 44.394531 35.824219 L 44.464844 35.53125 C 44.941406 33.5 46.515625 32.15625 48.574219 32.019531 L 48.976562 31.992188 L 49.179688 31.917969 L 49.378906 31.84375 L 49.570312 31.667969 L 49.765625 31.492188 L 49.871094 31.265625 L 49.980469 31.042969 L 49.980469 30.339844 L 49.898438 30.152344 C 49.851562 30.050781 49.734375 29.882812 49.636719 29.777344 L 49.460938 29.585938 L 49 29.375 L 48.015625 29.304688 L 47.640625 29.207031 C 46.921875 29.023438 46.285156 28.652344 45.707031 28.085938 L 45.367188 27.753906 L 45.121094 27.382812 C 44.839844 26.953125 44.632812 26.484375 44.523438 26.03125 C 44.480469 25.859375 44.433594 25.679688 44.421875 25.636719 C 44.40625 25.59375 44.386719 23.4375 44.371094 20.839844 L 44.347656 16.121094 L 44.246094 15.722656 C 43.769531 13.875 42.511719 12.472656 40.777344 11.847656 L 40.476562 11.742188 L 40.476562 9.597656 L 42.289062 9.597656 L 42.289062 7.597656 L 36.621094 7.597656 L 36.621094 11.457031 M 21.761719 16.699219 C 21.515625 16.785156 21.382812 16.867188 21.203125 17.046875 L 21.035156 17.214844 L 20.9375 17.429688 L 20.835938 17.648438 L 20.835938 23.09375 L 21.0625 23.546875 L 21.226562 23.699219 C 21.433594 23.894531 21.652344 24.003906 21.917969 24.054688 L 22.132812 24.09375 L 22.351562 24.050781 C 22.628906 23.992188 22.824219 23.890625 23.03125 23.699219 L 23.195312 23.546875 L 23.304688 23.320312 L 23.417969 23.09375 L 23.417969 17.648438 L 23.320312 17.429688 L 23.21875 17.214844 L 23.050781 17.042969 L 22.878906 16.871094 L 22.667969 16.773438 L 22.460938 16.675781 L 22.1875 16.660156 L 21.914062 16.648438 L 21.761719 16.699219 M 26.984375 17.882812 C 26.605469 17.988281 26.335938 18.21875 26.132812 18.609375 L 26.039062 18.78125 L 26.039062 21.210938 L 26.132812 21.386719 C 26.277344 21.660156 26.367188 21.769531 26.578125 21.917969 L 26.773438 22.050781 L 27.019531 22.117188 L 27.265625 22.179688 L 27.472656 22.152344 L 27.675781 22.125 L 27.90625 22.011719 L 28.136719 21.894531 L 28.277344 21.734375 C 28.355469 21.644531 28.464844 21.476562 28.523438 21.355469 L 28.625 21.132812 L 28.648438 19.179688 L 28.605469 18.941406 C 28.515625 18.484375 28.257812 18.144531 27.855469 17.957031 L 27.652344 17.863281 L 27.199219 17.824219 L 26.984375 17.882812 M 16.457031 21.515625 C 16.042969 21.695312 15.785156 21.980469 15.664062 22.398438 L 15.605469 22.605469 L 15.621094 23.222656 L 15.632812 23.835938 L 15.734375 24.058594 C 15.859375 24.328125 16.082031 24.5625 16.355469 24.707031 L 16.558594 24.816406 L 17.289062 24.816406 L 17.535156 24.679688 L 17.777344 24.546875 L 17.910156 24.382812 C 17.980469 24.292969 18.078125 24.136719 18.128906 24.027344 L 18.214844 23.835938 L 18.214844 22.425781 L 18.113281 22.203125 L 18.011719 21.984375 L 17.847656 21.820312 L 17.6875 21.652344 L 17.25 21.449219 L 16.671875 21.425781 L 16.457031 21.515625 M 32.171875 21.832031 C 31.710938 21.988281 31.410156 22.285156 31.253906 22.726562 L 31.207031 22.855469 L 31.1875 27.617188 L 31.167969 32.375 L 31.078125 32.546875 C 30.875 32.933594 30.554688 33.175781 30.128906 33.265625 L 29.914062 33.3125 L 29.699219 33.265625 C 29.261719 33.171875 28.921875 32.90625 28.746094 32.519531 L 28.664062 32.335938 L 28.644531 28.636719 L 28.625 24.933594 L 28.53125 24.703125 L 28.441406 24.476562 L 28.238281 24.269531 L 28.03125 24.058594 L 27.808594 23.972656 L 27.582031 23.882812 L 27.332031 23.882812 L 27.082031 23.878906 L 26.675781 24.019531 L 26.246094 24.417969 L 26.144531 24.617188 L 26.039062 24.816406 L 26.023438 29.949219 L 26.003906 35.082031 L 25.875 35.34375 L 25.75 35.601562 L 25.574219 35.761719 L 25.398438 35.917969 L 25.179688 36 L 24.960938 36.085938 L 24.652344 36.070312 L 24.34375 36.050781 L 24.175781 35.964844 C 24.085938 35.914062 23.933594 35.804688 23.839844 35.71875 L 23.671875 35.558594 L 23.566406 35.339844 L 23.457031 35.117188 L 23.417969 26.773438 L 23.3125 26.554688 L 23.207031 26.332031 L 23.03125 26.167969 C 22.933594 26.078125 22.757812 25.957031 22.636719 25.902344 L 22.417969 25.796875 L 21.839844 25.796875 L 21.597656 25.910156 L 21.359375 26.019531 L 21.179688 26.210938 C 21.085938 26.316406 20.964844 26.488281 20.921875 26.589844 L 20.835938 26.773438 L 20.816406 28.851562 L 20.796875 30.925781 L 20.699219 31.140625 C 20.570312 31.414062 20.332031 31.65625 20.050781 31.796875 L 19.835938 31.90625 L 19.21875 31.90625 L 19 31.796875 C 18.878906 31.738281 18.707031 31.617188 18.621094 31.527344 L 18.457031 31.371094 L 18.253906 30.925781 L 18.214844 27.675781 L 18.125 27.492188 C 18.074219 27.390625 17.964844 27.226562 17.882812 27.128906 L 17.730469 26.953125 L 17.214844 26.695312 L 16.90625 26.699219 L 16.597656 26.699219 L 16.375 26.804688 L 16.15625 26.90625 L 15.976562 27.085938 C 15.878906 27.1875 15.765625 27.351562 15.71875 27.449219 L 15.640625 27.632812 L 15.609375 27.9375 L 15.574219 28.246094 L 15.488281 28.429688 C 15.378906 28.667969 15.105469 28.945312 14.859375 29.066406 L 14.667969 29.164062 L 13.972656 29.164062 L 13.730469 29.03125 C 13.449219 28.875 13.289062 28.699219 13.148438 28.402344 L 13.050781 28.183594 L 13.011719 24.855469 L 12.925781 24.664062 C 12.816406 24.425781 12.679688 24.261719 12.464844 24.105469 L 12.296875 23.980469 L 11.804688 23.847656 L 11.375 23.902344 L 11.144531 24.015625 L 10.917969 24.132812 L 10.773438 24.292969 C 10.695312 24.382812 10.585938 24.550781 10.53125 24.671875 L 10.429688 24.894531 L 10.429688 39.152344 L 10.5 39.476562 C 10.890625 41.292969 12.148438 42.792969 14.148438 43.832031 C 14.789062 44.164062 23.734375 48.125 24.023438 48.207031 L 24.265625 48.273438 L 25.152344 48.273438 L 25.402344 48.207031 C 25.683594 48.128906 34.503906 44.226562 35.214844 43.867188 C 37.355469 42.78125 38.707031 41.09375 38.972656 39.183594 L 39.015625 38.878906 L 38.992188 24.816406 L 38.886719 24.609375 C 38.75 24.34375 38.523438 24.121094 38.25 23.984375 L 38.03125 23.875 L 37.722656 23.875 L 37.414062 23.878906 L 37.195312 23.980469 C 37.078125 24.035156 36.910156 24.148438 36.820312 24.226562 L 36.664062 24.375 L 36.535156 24.632812 L 36.410156 24.890625 L 36.371094 29.4375 L 36.269531 29.632812 C 36.144531 29.871094 35.894531 30.125 35.660156 30.242188 L 35.484375 30.332031 L 35.191406 30.351562 L 34.894531 30.367188 L 34.71875 30.308594 C 34.34375 30.179688 34.050781 29.882812 33.894531 29.488281 L 33.828125 29.320312 L 33.808594 26.03125 L 33.789062 22.738281 L 33.703125 22.558594 C 33.65625 22.460938 33.554688 22.308594 33.480469 22.21875 L 33.34375 22.058594 L 32.859375 21.816406 L 32.59375 21.796875 L 32.324219 21.78125 L 32.171875 21.832031 M 13.917969 33.042969 C 13.820312 33.074219 13.65625 33.164062 13.550781 33.246094 L 13.359375 33.398438 L 13.234375 33.605469 C 13.167969 33.722656 13.09375 33.90625 13.070312 34.019531 L 13.027344 34.222656 L 13.039062 37.097656 L 13.050781 39.976562 L 13.191406 40.351562 L 13.375 40.554688 C 13.582031 40.785156 13.800781 40.910156 14.105469 40.976562 L 14.3125 41.023438 L 14.527344 40.976562 C 14.972656 40.886719 15.308594 40.625 15.492188 40.230469 L 15.59375 40.015625 L 15.59375 33.941406 L 15.480469 33.714844 L 15.367188 33.484375 L 15.179688 33.3125 L 14.992188 33.144531 L 14.78125 33.0625 L 14.570312 32.984375 L 14.328125 32.984375 C 14.199219 32.988281 14.011719 33.011719 13.917969 33.042969 M 34.734375 33.085938 C 34.382812 33.214844 34.101562 33.480469 33.929688 33.84375 L 33.867188 33.980469 L 33.84375 39.886719 L 33.902344 40.089844 C 33.933594 40.199219 34.011719 40.371094 34.078125 40.472656 L 34.195312 40.652344 L 34.398438 40.792969 L 34.597656 40.933594 L 34.832031 40.992188 L 35.0625 41.054688 L 35.253906 41.03125 C 35.671875 40.976562 36.054688 40.714844 36.257812 40.339844 L 36.371094 40.132812 L 36.382812 37.082031 L 36.394531 34.035156 L 36.292969 33.804688 L 36.1875 33.570312 L 36 33.390625 C 35.894531 33.292969 35.730469 33.175781 35.628906 33.128906 L 35.445312 33.046875 L 35.175781 33.035156 L 34.90625 33.019531 L 34.734375 33.085938 M 19.3125 35.257812 C 18.917969 35.320312 18.511719 35.644531 18.335938 36.03125 L 18.253906 36.214844 L 18.253906 42.285156 L 18.457031 42.730469 L 18.621094 42.890625 C 18.707031 42.976562 18.878906 43.097656 19 43.15625 L 19.21875 43.265625 L 19.527344 43.265625 L 19.835938 43.261719 L 20.050781 43.160156 L 20.269531 43.058594 L 20.433594 42.894531 L 20.59375 42.730469 L 20.796875 42.285156 L 20.796875 36.214844 L 20.714844 36.03125 C 20.667969 35.929688 20.550781 35.757812 20.453125 35.652344 L 20.277344 35.460938 L 20.054688 35.363281 C 19.800781 35.25 19.5625 35.214844 19.3125 35.257812 M 29.566406 35.332031 C 29.359375 35.394531 29.152344 35.53125 28.984375 35.714844 L 28.808594 35.90625 L 28.726562 36.132812 L 28.640625 36.359375 L 28.652344 39.363281 L 28.664062 42.363281 L 28.75 42.546875 C 28.800781 42.644531 28.902344 42.800781 28.972656 42.886719 L 29.109375 43.046875 L 29.625 43.304688 L 29.933594 43.304688 L 30.242188 43.300781 L 30.460938 43.195312 L 30.679688 43.085938 L 30.875 42.871094 L 31.070312 42.652344 L 31.226562 42.128906 L 31.21875 39.210938 L 31.207031 36.292969 L 31.078125 36.03125 L 30.953125 35.769531 L 30.777344 35.609375 L 30.601562 35.453125 L 30.390625 35.375 L 30.183594 35.292969 L 29.921875 35.296875 C 29.78125 35.300781 29.621094 35.3125 29.566406 35.332031 M 24.402344 37.863281 C 24.019531 37.96875 23.734375 38.214844 23.558594 38.585938 L 23.457031 38.800781 L 23.457031 44.871094 L 23.542969 45.054688 C 23.589844 45.15625 23.707031 45.328125 23.804688 45.433594 L 23.980469 45.625 L 24.214844 45.734375 L 24.453125 45.839844 L 24.785156 45.824219 L 25.117188 45.804688 L 25.277344 45.722656 C 25.628906 45.535156 25.855469 45.261719 25.960938 44.882812 L 26.023438 44.667969 L 26.011719 41.734375 L 26.003906 38.800781 L 25.785156 38.355469 L 25.578125 38.160156 L 25.367188 37.964844 L 25.183594 37.902344 C 25.085938 37.867188 24.914062 37.832031 24.808594 37.820312 L 24.613281 37.800781 L 24.402344 37.863281 "/>
</g>
</svg>
